# xmcd
#
# Track frame offsets:
#	150
#	22934
#	42969
#	55358
#	69508
#	92349
#	117741
#	146765
#	170617
#	184359
#	187712
#	209452
#	229242
#	247471
#	274773
#	294277
#	310680
#	320774
#	329140
#	343735
#
# Disc length: 4841 seconds
#
# Revision: 1
# Processed by: cddbd v1.5.2PL0 Copyright (c) Steve Scherf et al.
# Submitted via: audiograbber 1.83.01
#
DISCID=3d12e714
DTITLE=Alvin Lee and Co - In flight
DYEAR=1900
DGENRE=
TTITLE0=Got to Keep Moving
TTITLE1=Going Through the Door
TTITLE2=Don't Be Cruel
TTITLE3=Money Honey
TTITLE4=I'm Writing You a Letter
TTITLE5=You Need Love Love Love
TTITLE6=Freedom for the Stallion
TTITLE7=Every Blues You've Ever Heard
TTITLE8=All Life's Trials
TTITLE9=Intro
TTITLE10=Let's Get Back
TTITLE11=Ride My Train
TTITLE12=There's a Feeling
TTITLE13=Running Round
TTITLE14=Mystery Train
TTITLE15=Slow Down
TTITLE16=Keep a Knocking
TTITLE17=How Many Times
TTITLE18=I've Got Eyes for You Baby
TTITLE19=I'm Writing You a Letter
EXTD=digitalized and remastered from vinyl-record
EXTT0=
EXTT1=
EXTT2=
EXTT3=
EXTT4=
EXTT5=
EXTT6=
EXTT7=
EXTT8=
EXTT9=
EXTT10=
EXTT11=
EXTT12=
EXTT13=
EXTT14=
EXTT15=
EXTT16=
EXTT17=
EXTT18=
EXTT19=
PLAYORDER=
